<svg version="1" xmlns="http://www.w3.org/2000/svg" width="745.333" height="745.333" viewBox="0 0 559 559"><path d="M260.8 1.1C220.5 3.7 178 16.2 143.5 35.7 75.5 74.2 25.8 139.3 7.9 213.5c-17.3 71.9-5 150.8 33.2 212 44.6 71.5 114.7 117.7 198 130.6 20.9 3.3 59.9 3.3 80.8 0 89.2-13.8 163.7-66.2 206.4-145.1 14.3-26.5 24.8-58.5 29.9-91.1 3.2-20.6 3.2-59.9 0-80.4-4.6-29.9-12.6-55.3-25.7-82-14.1-28.9-28.1-48.9-50-71.4-43.6-44.8-96-72.3-156.9-82.1-11.2-1.8-40.1-4.2-47.1-3.9-1.6.1-8.7.6-15.7 1zm-38.7 235.7c31.2 58.5 57 106.4 57.3 106.5.4.1 26.2-47.7 57.4-106.3l56.8-106.5 14.2-.3 14.2-.3V429h-28l-.2-119.9-.3-119.9-57 106.9L279.6 403l-2.1-3.8c-1.1-2.2-26.7-50.3-57-107l-55-103.2-.3 120-.2 120h-28V129.9l14.2.3 14.3.3 56.6 106.3z"/></svg>