<svg xmlns="http://www.w3.org/2000/svg" id="Logo" x="0px" y="0px" xml:space="preserve" viewBox="0 0 260 111" enable-background="new 0 0 260 111"><path fill="#7baeb7" d="M0 39.13h1.798l7.358 13.817 7.358-13.817h1.796v19.294h-1.796V42.95L9.156 56.769 1.798 42.95v15.475H0V39.13zM37.128 53.874H26.064l-1.995 4.551h-1.966l8.509-19.294h1.966l8.509 19.294h-1.966l-1.993-4.551zm-.786-1.74l-4.747-10.785-4.745 10.785h9.492zM44.88 39.13h6.543c6.01 0 10.251 3.987 10.251 9.633 0 5.645-4.242 9.661-10.251 9.661H44.88V39.13zm6.543 17.639c4.943 0 8.454-3.316 8.454-8.005 0-4.662-3.511-7.976-8.454-7.976h-4.746v15.981h4.746zM67.77 40.843v6.881h10.56v1.74H67.77v7.248h11.626v1.712H65.944V39.13h13.452v1.713H67.77z"/><path fill="#7baeb7" d="M108.046 50.56l-7.809-11.429h2.247l6.488 9.661 6.543-9.661h2.189l-7.778 11.429v7.865h-1.881V50.56zM119.925 48.764c0-5.421 4.547-9.97 9.88-9.97 5.364 0 9.858 4.549 9.858 9.97 0 5.419-4.494 9.998-9.858 9.998-5.333 0-9.88-4.579-9.88-9.998zm17.912 0c0-4.494-3.65-8.285-8.032-8.285-4.379 0-8.055 3.791-8.055 8.285 0 4.52 3.675 8.313 8.055 8.313 4.382 0 8.032-3.794 8.032-8.313zM143.792 50.617V39.13h1.798v11.487c0 3.791 2.527 6.487 6.066 6.487 3.538 0 6.064-2.696 6.064-6.487V39.13h1.798v11.487c0 4.772-3.258 8.145-7.862 8.145-4.606 0-7.864-3.372-7.864-8.145z"/><path fill="#7baeb7" d="M195.167 56.713v1.712h-12.526V39.13h1.799v17.583h10.727zM197.836 48.764c0-5.421 4.549-9.97 9.885-9.97 5.363 0 9.856 4.549 9.856 9.97 0 5.419-4.493 9.998-9.856 9.998-5.336 0-9.885-4.579-9.885-9.998zm17.917 0c0-4.494-3.65-8.285-8.032-8.285-4.381 0-8.06 3.791-8.06 8.285 0 4.52 3.679 8.313 8.06 8.313 4.382 0 8.032-3.794 8.032-8.313zM220.752 48.764c0-5.421 4.552-9.97 9.886-9.97 5.365 0 9.859 4.549 9.859 9.97 0 5.419-4.494 9.998-9.859 9.998-5.334 0-9.886-4.579-9.886-9.998zm17.917 0c0-4.494-3.65-8.285-8.031-8.285-4.38 0-8.059 3.791-8.059 8.285 0 4.52 3.679 8.313 8.059 8.313 4.381 0 8.031-3.794 8.031-8.313zM244.795 39.13h1.796v11.15l10.195-11.15h2.386l-8.087 8.79 8.649 10.505h-2.33l-7.555-9.27-3.259 3.483v5.786h-1.796V39.13z"/><path fill="#7baeb7" d="M83.726 109.484l.47-.458c.166.353.557.604.941.604.49 0 .842-.404.842-.98v-3.043h.669v3.068c0 .915-.61 1.564-1.478 1.564-.556.001-1.152-.309-1.444-.755zM94.973 106.229v1.299h2.413v.623h-2.413v1.386h2.671v.624h-3.348v-4.554h3.348v.622h-2.671zM104.814 105.607h.742l1.12 3.473 1.142-3.473h.741l1.14 3.473 1.121-3.473h.742l-1.498 4.554h-.67l-1.199-3.627-1.213 3.627h-.67l-1.498-4.554zM119.56 106.229v1.299h2.413v.623h-2.413v1.386h2.67v.624h-3.348v-4.554h3.348v.622h-2.67zM132.718 109.537v.624h-3.089v-4.554h.676v3.93h2.413zM143.069 109.537v.624h-3.089v-4.554h.676v3.93h2.413zM151.068 106.229v1.299h2.412v.623h-2.412v1.386h2.67v.624h-3.348v-4.554h3.348v.622h-2.67zM163.64 108.51l1.16 1.651h-.77l-1.113-1.584h-1.047v1.584h-.67v-4.554h1.917c.96 0 1.688.616 1.688 1.483.001.703-.475 1.24-1.165 1.42zm-1.77-.557h1.154c.656 0 1.1-.324 1.1-.862 0-.535-.443-.861-1.1-.861h-1.154v1.723zM173.361 108.377l-1.822-2.77h.809l1.359 2.135 1.378-2.135h.776l-1.811 2.77v1.784h-.689v-1.784z"/><path fill="#7baeb7" d="M127.058 89.947c-23.209.464-42.469-18.04-42.932-41.251-.463-23.21 18.043-42.469 41.252-42.933 23.209-.462 42.469 18.042 42.931 41.252.463 23.212-18.042 42.471-41.251 42.932zM125.4 6.83c-22.623.451-40.658 19.224-40.207 41.845.452 22.621 19.222 40.659 41.844 40.208 22.621-.452 40.659-19.225 40.208-41.846-.453-22.621-19.224-40.659-41.845-40.207z"/><path fill="#7baeb7" d="M131.812 94.517c-23.209.464-42.469-18.042-42.932-41.253-.463-23.209 18.043-42.469 41.251-42.931 23.211-.463 42.47 18.042 42.932 41.25.462 23.211-18.042 42.471-41.251 42.934zm-1.66-83.12c-22.62.451-40.657 19.224-40.206 41.845.452 22.623 19.223 40.661 41.844 40.21 22.622-.451 40.659-19.227 40.207-41.848-.451-22.62-19.224-40.658-41.845-40.207z"/><path fill="#7baeb7" d="M136.38 89.764c-23.209.461-42.47-18.042-42.933-41.253s18.044-42.47 41.252-42.933c23.21-.462 42.47 18.042 42.933 41.251.463 23.212-18.043 42.471-41.252 42.935zm-1.659-83.12c-22.621.451-40.659 19.224-40.207 41.844.452 22.623 19.223 40.659 41.845 40.208 22.622-.451 40.659-19.224 40.207-41.846-.452-22.621-19.224-40.658-41.845-40.206z"/><path fill="#7baeb7" d="M131.625 85.194c-23.209.463-42.469-18.04-42.932-41.251-.463-23.21 18.043-42.47 41.251-42.934 23.211-.463 42.47 18.043 42.934 41.253.463 23.212-18.042 42.47-41.253 42.932zm-1.659-83.118c-22.62.451-40.657 19.224-40.206 41.845.452 22.621 19.223 40.659 41.843 40.208 22.622-.451 40.659-19.224 40.208-41.845-.451-22.622-19.224-40.66-41.845-40.208z"/></svg>